<svg  xmlns="http://www.w3.org/2000/svg" xmlns:xlink="http://www.w3.org/1999/xlink" id="svg8547" viewBox="300 278 450 230" height="100%" width="100%" version="1.1">
    <metadata id="metadata8553">
    </metadata>
    <defs id="defs8551"></defs>
    <linearGradient spreadMethod="pad" y2="30%" x2="-10%" y1="120%" x1="30%" id="3d_gradient2-logo-6ed20707-9b8d-4247-9761-5a83e5c614ce">
        <stop id="stop8528" stop-opacity="1" stop-color="#ffffff" offset="0%"></stop>
        <stop id="stop8530" stop-opacity="1" stop-color="#000000" offset="100%"></stop>
    </linearGradient>
    <linearGradient gradientTransform="rotate(-30)" spreadMethod="pad" y2="30%" x2="-10%" y1="120%" x1="30%" id="3d_gradient3-logo-6ed20707-9b8d-4247-9761-5a83e5c614ce">
        <stop id="stop8533" stop-opacity="1" stop-color="#ffffff" offset="0%"></stop>
        <stop id="stop8535" stop-opacity="1" stop-color="#cccccc" offset="50%"></stop>
        <stop id="stop8537" stop-opacity="1" stop-color="#000000" offset="100%"></stop>
    </linearGradient>
    <g id="logo-group">
        <image xlink:href="" id="container" x="272" y="144" width="480" height="480" style="display: none;" transform="translate(0 0)"></image>
        <g id="logo-center" transform="translate(0 0)">
            <image xlink:href="" id="icon_container" x="0" y="0" style="display: none;"></image>
            <g id="slogan" style="font-style:normal;font-weight:300;font-size:32px;line-height:1;font-family:Comfortaa;font-variant-ligatures:none;text-align:center;text-anchor:middle" transform="translate(0 0)">
                <path id="path8555" style="font-style:normal;font-weight:300;font-size:32px;line-height:1;font-family:Comfortaa;font-variant-ligatures:none;text-align:center;text-anchor:middle" d="m 408.84425,0.32 q -3.008,0 -5.216,-1.216 -2.208,-1.248 -3.296,-3.392 -0.096,-0.192 -0.096,-0.384 0,-0.384 0.256,-0.64 0.288,-0.256 0.736,-0.256 0.64,0 0.928,0.608 0.864,1.6 2.56,2.496 1.728,0.864 4.128,0.864 2.752,0 4.32,-1.376 1.6,-1.376 1.6,-3.904 0,-2.176 -1.568,-3.584 -1.536,-1.44 -4.576,-1.856 -3.552,-0.512 -5.6,-2.304 -2.016,-1.824 -2.016,-4.416 0,-1.856 0.928,-3.264 0.96,-1.44 2.656,-2.208 1.728,-0.8 3.968,-0.8 2.336,0 4.288,1.12 1.952,1.12 2.88,2.688 0.128,0.224 0.128,0.512 0,0.256 -0.16,0.48 -0.128,0.192 -0.384,0.32 -0.128,0.064 -0.384,0.064 -0.576,0 -0.896,-0.48 -1.888,-2.784 -5.472,-2.784 -2.656,0 -4.16,1.216 -1.472,1.184 -1.472,3.328 0,1.792 1.472,3.008 1.472,1.216 4.544,1.728 4.032,0.672 5.888,2.496 1.856,1.792 1.856,4.736 0,2.208 -0.992,3.84 -0.96,1.632 -2.752,2.496 -1.76,0.864 -4.096,0.864 z" stroke-width="0" stroke-linejoin="miter" stroke-miterlimit="2" fill="#316afd" stroke="#316afd" transform="translate(1.1368683772161603e-13 404.00976) translate(345.20299999999986 42.65952) scale(1.29) translate(-400.23625 25.312)"></path>
                <path id="path8557" style="font-style:normal;font-weight:300;font-size:32px;line-height:1;font-family:Comfortaa;font-variant-ligatures:none;text-align:center;text-anchor:middle" d="m 429.66125,-17.728 q 2.336,0 4.16,0.96 1.856,0.96 2.88,2.816 1.056,1.824 1.056,4.384 v 8.608 q 0,0.416 -0.288,0.704 -0.256,0.256 -0.672,0.256 -0.416,0 -0.704,-0.256 -0.256,-0.288 -0.256,-0.704 v -8.608 q 0,-3.04 -1.728,-4.64 -1.696,-1.6 -4.448,-1.6 -1.696,0 -3.104,0.672 -1.376,0.64 -2.176,1.824 -0.8,1.152 -0.8,2.56 v 9.792 q 0,0.416 -0.256,0.704 -0.256,0.256 -0.704,0.256 -0.416,0 -0.704,-0.256 -0.256,-0.288 -0.256,-0.704 v -23.072 q 0,-0.448 0.256,-0.704 0.288,-0.256 0.704,-0.256 0.448,0 0.704,0.256 0.256,0.256 0.256,0.704 v 9.152 q 1.088,-1.344 2.656,-2.08 1.568,-0.768 3.424,-0.768 z" stroke-width="0" stroke-linejoin="miter" stroke-miterlimit="2" fill="#316afd" stroke="#316afd" transform="translate(1.1368683772161603e-13 404.00976) translate(376.7112499999999 43.072320000000005) scale(1.29) translate(-421.66125 24.992)"></path>
                <path id="path8559" style="font-style:normal;font-weight:300;font-size:32px;line-height:1;font-family:Comfortaa;font-variant-ligatures:none;text-align:center;text-anchor:middle" d="m 451.22375,0.192 q -2.528,0 -4.576,-1.152 -2.048,-1.184 -3.232,-3.232 -1.152,-2.048 -1.152,-4.544 0,-2.528 1.152,-4.576 1.184,-2.048 3.232,-3.2 2.048,-1.184 4.576,-1.184 2.496,0 4.544,1.184 2.048,1.152 3.2,3.2 1.184,2.048 1.184,4.576 0,2.496 -1.184,4.544 -1.152,2.048 -3.2,3.232 -2.048,1.152 -4.544,1.152 z m 0,-1.792 q 1.984,0 3.584,-0.928 1.6,-0.928 2.496,-2.56 0.928,-1.632 0.928,-3.648 0,-2.016 -0.928,-3.648 -0.896,-1.632 -2.496,-2.56 -1.6,-0.96 -3.584,-0.96 -1.984,0 -3.584,0.96 -1.6,0.928 -2.528,2.56 -0.928,1.632 -0.928,3.648 0,2.016 0.928,3.648 0.928,1.632 2.528,2.56 1.6,0.928 3.584,0.928 z" stroke-width="0" stroke-linejoin="miter" stroke-miterlimit="2" fill="#316afd" stroke="#316afd" transform="translate(1.1368683772161603e-13 404.00976) translate(407.15847499999995 52.48416) scale(1.29) translate(-442.26375 17.696)"></path>
                <path id="path8561" style="font-style:normal;font-weight:300;font-size:32px;line-height:1;font-family:Comfortaa;font-variant-ligatures:none;text-align:center;text-anchor:middle" d="m 483.62025,-17.504 q 0.416,0 0.64,0.256 0.224,0.256 0.224,0.64 0,0.224 -0.096,0.48 l -5.152,15.52 q -0.096,0.288 -0.352,0.448 -0.224,0.16 -0.576,0.16 -0.32,0 -0.576,-0.16 -0.256,-0.16 -0.32,-0.448 l -4.352,-13.536 -4.224,13.536 q -0.224,0.608 -0.896,0.608 -0.32,0 -0.576,-0.16 -0.224,-0.16 -0.32,-0.448 l -5.184,-15.52 q -0.064,-0.384 -0.064,-0.512 0,-0.864 0.8,-0.864 0.288,0 0.512,0.16 0.256,0.128 0.384,0.416 l 4.512,13.632 4.16,-13.44 q 0.096,-0.352 0.352,-0.544 0.256,-0.224 0.608,-0.224 0.704,0 0.96,0.768 l 4.192,13.184 4.448,-13.376 q 0.256,-0.576 0.896,-0.576 z" stroke-width="0" stroke-linejoin="miter" stroke-miterlimit="2" fill="#316afd" stroke="#316afd" transform="translate(1.1368683772161603e-13 404.00976) translate(436.2253999999999 52.73184) scale(1.29) translate(-461.79625 17.504)"></path>
                <path id="path8563" style="font-style:normal;font-weight:300;font-size:32px;line-height:1;font-family:Comfortaa;font-variant-ligatures:none;text-align:center;text-anchor:middle" d="m 511.26875,-17.472 q 0.608,0.256 0.608,0.736 0,0.128 -0.128,0.448 l -10.752,23.296 q -0.288,0.576 -0.736,0.576 -0.192,0 -0.448,-0.096 -0.608,-0.256 -0.608,-0.736 0,-0.128 0.128,-0.448 l 3.2,-6.912 q -0.032,-0.032 -0.128,-0.224 l -7.008,-15.36 q -0.128,-0.256 -0.128,-0.512 0,-0.48 0.544,-0.736 0.256,-0.128 0.512,-0.128 0.48,0 0.736,0.544 l 6.496,14.208 6.528,-14.176 q 0.288,-0.576 0.736,-0.576 0.224,0 0.448,0.096 z" stroke-width="0" stroke-linejoin="miter" stroke-miterlimit="2" fill="#316afd" stroke="#316afd" transform="translate(1.1368683772161603e-13 404.00976) translate(483.27492499999994 52.64928) scale(1.29) translate(-495.26875 17.568)"></path>
                <path id="path8565" style="font-style:normal;font-weight:300;font-size:32px;line-height:1;font-family:Comfortaa;font-variant-ligatures:none;text-align:center;text-anchor:middle" d="m 522.47375,0.192 q -2.528,0 -4.576,-1.152 -2.048,-1.184 -3.232,-3.232 -1.152,-2.048 -1.152,-4.544 0,-2.528 1.152,-4.576 1.184,-2.048 3.232,-3.2 2.048,-1.184 4.576,-1.184 2.496,0 4.544,1.184 2.048,1.152 3.2,3.2 1.184,2.048 1.184,4.576 0,2.496 -1.184,4.544 -1.152,2.048 -3.2,3.232 -2.048,1.152 -4.544,1.152 z m 0,-1.792 q 1.984,0 3.584,-0.928 1.6,-0.928 2.496,-2.56 0.928,-1.632 0.928,-3.648 0,-2.016 -0.928,-3.648 -0.896,-1.632 -2.496,-2.56 -1.6,-0.96 -3.584,-0.96 -1.984,0 -3.584,0.96 -1.6,0.928 -2.528,2.56 -0.928,1.632 -0.928,3.648 0,2.016 0.928,3.648 0.928,1.632 2.528,2.56 1.6,0.928 3.584,0.928 z" stroke-width="0" stroke-linejoin="miter" stroke-miterlimit="2" fill="#316afd" stroke="#316afd" transform="translate(1.1368683772161603e-13 404.00976) translate(510.6809749999999 52.48416) scale(1.29) translate(-513.51375 17.696)"></path>
                <path id="path8567" style="font-style:normal;font-weight:300;font-size:32px;line-height:1;font-family:Comfortaa;font-variant-ligatures:none;text-align:center;text-anchor:middle" d="m 551.03975,-17.504 q 0.448,0 0.704,0.256 0.256,0.256 0.256,0.704 V -0.96 q 0,0.416 -0.256,0.704 -0.256,0.256 -0.704,0.256 -0.416,0 -0.704,-0.256 -0.256,-0.288 -0.256,-0.704 v -1.664 q -1.088,1.344 -2.656,2.112 -1.568,0.736 -3.424,0.736 -2.336,0 -4.192,-0.96 -1.824,-0.96 -2.88,-2.784 -1.024,-1.856 -1.024,-4.416 v -8.608 q 0,-0.416 0.256,-0.672 0.288,-0.288 0.704,-0.288 0.416,0 0.672,0.288 0.288,0.256 0.288,0.672 v 8.608 q 0,3.04 1.696,4.64 1.728,1.6 4.48,1.6 1.696,0 3.072,-0.64 1.408,-0.672 2.208,-1.824 0.8,-1.184 0.8,-2.592 v -9.792 q 0,-0.448 0.256,-0.704 0.288,-0.256 0.704,-0.256 z" stroke-width="0" stroke-linejoin="miter" stroke-miterlimit="2" fill="#316afd" stroke="#316afd" transform="translate(1.1368683772161603e-13 404.00976) translate(543.4340749999998 52.73184) scale(1.29) translate(-535.90375 17.504)"></path>
                <path id="path8569" style="font-style:normal;font-weight:300;font-size:32px;line-height:1;font-family:Comfortaa;font-variant-ligatures:none;text-align:center;text-anchor:middle" d="m 565.21025,-17.696 q 2.432,0 2.432,1.056 0,0.16 -0.032,0.256 -0.096,0.352 -0.32,0.512 -0.192,0.128 -0.544,0.128 -0.288,0 -0.768,-0.064 -0.448,-0.064 -0.768,-0.064 -1.6,0 -2.848,0.672 -1.248,0.672 -1.952,1.856 -0.704,1.184 -0.704,2.656 v 9.728 q 0,0.416 -0.256,0.704 -0.256,0.256 -0.704,0.256 -0.416,0 -0.704,-0.256 -0.256,-0.288 -0.256,-0.704 v -15.584 q 0,-0.448 0.256,-0.704 0.288,-0.256 0.704,-0.256 0.448,0 0.704,0.256 0.256,0.256 0.256,0.704 v 1.984 q 0.928,-1.472 2.368,-2.304 1.44,-0.832 3.136,-0.832 z" stroke-width="0" stroke-linejoin="miter" stroke-miterlimit="2" fill="#316afd" stroke="#316afd" transform="translate(1.1368683772161603e-13 404.00976) translate(575.5324999999998 52.48416) scale(1.29) translate(-557.78625 17.696)"></path>
                <path id="path8571" style="font-style:normal;font-weight:300;font-size:32px;line-height:1;font-family:Comfortaa;font-variant-ligatures:none;text-align:center;text-anchor:middle" d="m 577.73825,0.192 q -1.856,0 -3.616,-0.64 -1.76,-0.672 -2.912,-2.016 -0.224,-0.256 -0.224,-0.576 0,-0.448 0.416,-0.736 0.192,-0.16 0.544,-0.16 0.448,0 0.736,0.352 1.6,1.952 5.152,1.952 2.528,0 3.712,-0.896 1.216,-0.896 1.216,-2.304 0,-2.528 -4.896,-3.232 -3.104,-0.448 -4.704,-1.696 -1.568,-1.248 -1.568,-3.008 0,-2.336 1.696,-3.616 1.728,-1.312 4.48,-1.312 4.032,0 6.112,2.88 0.192,0.224 0.192,0.544 0,0.448 -0.512,0.736 -0.32,0.128 -0.48,0.128 -0.48,0 -0.8,-0.416 -1.632,-2.08 -4.576,-2.08 -1.952,0 -3.104,0.864 -1.152,0.832 -1.152,2.08 0,1.28 1.088,2.048 1.12,0.768 3.712,1.152 3.392,0.48 4.864,1.824 1.504,1.312 1.504,3.2 0,1.472 -0.96,2.592 -0.928,1.12 -2.496,1.728 -1.568,0.608 -3.424,0.608 z" stroke-width="0" stroke-linejoin="miter" stroke-miterlimit="2" fill="#316afd" stroke="#316afd" transform="translate(1.1368683772161603e-13 404.00976) translate(596.4304999999999 52.48416) scale(1.29) translate(-570.98625 17.696)"></path>
                <path id="path8573" style="font-style:normal;font-weight:300;font-size:32px;line-height:1;font-family:Comfortaa;font-variant-ligatures:none;text-align:center;text-anchor:middle" d="m 596.17525,-17.664 q 2.336,0 4.16,1.12 1.856,1.088 2.88,3.04 1.024,1.952 1.024,4.448 0,0.416 -0.256,0.672 -0.256,0.224 -0.672,0.224 h -13.408 q 0.096,1.888 0.992,3.392 0.896,1.472 2.4,2.304 1.504,0.832 3.36,0.832 1.248,0 2.496,-0.416 1.28,-0.448 2.016,-1.152 0.32,-0.256 0.672,-0.256 0.352,0 0.576,0.192 0.352,0.288 0.352,0.672 0,0.32 -0.288,0.608 -1.024,0.928 -2.688,1.536 -1.632,0.608 -3.136,0.608 -2.528,0 -4.512,-1.12 -1.952,-1.152 -3.072,-3.168 -1.12,-2.048 -1.12,-4.608 0,-2.592 1.024,-4.608 1.056,-2.048 2.912,-3.168 1.888,-1.152 4.288,-1.152 z m 0,1.792 q -2.496,0 -4.224,1.664 -1.696,1.664 -2.016,4.384 h 12.448 q -0.224,-2.72 -1.92,-4.384 -1.696,-1.664 -4.288,-1.664 z" stroke-width="0" stroke-linejoin="miter" stroke-miterlimit="2" fill="#316afd" stroke="#316afd" transform="translate(1.1368683772161603e-13 404.00976) translate(622.1853499999999 52.52544) scale(1.29) translate(-587.95125 17.664)"></path>
                <path id="path8575" style="font-style:normal;font-weight:300;font-size:32px;line-height:1;font-family:Comfortaa;font-variant-ligatures:none;text-align:center;text-anchor:middle" d="m 611.93125,0 q -1.824,0 -3.008,-1.472 -1.152,-1.472 -1.152,-3.808 v -18.752 q 0,-0.448 0.256,-0.704 0.288,-0.256 0.704,-0.256 0.448,0 0.704,0.256 0.256,0.256 0.256,0.704 V -5.28 q 0,1.472 0.608,2.432 0.64,0.928 1.632,0.928 h 0.8 q 0.352,0 0.576,0.256 0.224,0.256 0.224,0.704 0,0.416 -0.256,0.704 -0.256,0.256 -0.704,0.256 z" stroke-width="0" stroke-linejoin="miter" stroke-miterlimit="2" fill="#316afd" stroke="#316afd" transform="translate(1.1368683772161603e-13 404.00976) translate(651.6231499999999 43.072320000000005) scale(1.29) translate(-607.77125 24.992)"></path>
                <path id="path8577" style="font-style:normal;font-weight:300;font-size:32px;line-height:1;font-family:Comfortaa;font-variant-ligatures:none;text-align:center;text-anchor:middle" d="m 624.87625,-23.264 q -2.336,0 -3.392,1.568 -1.056,1.536 -1.056,4.16 v 0.672 h 4.224 q 0.384,0 0.608,0.256 0.256,0.224 0.256,0.608 0,0.384 -0.256,0.64 -0.224,0.224 -0.608,0.224 h -4.224 V -0.96 q 0,0.416 -0.288,0.704 -0.256,0.256 -0.704,0.256 -0.416,0 -0.704,-0.256 -0.256,-0.288 -0.256,-0.704 v -14.176 h -2.496 q -0.384,0 -0.64,-0.224 -0.224,-0.256 -0.224,-0.64 0,-0.384 0.224,-0.608 0.256,-0.256 0.64,-0.256 h 2.496 v -0.672 q 0,-3.424 1.6,-5.44 1.6,-2.016 4.8,-2.016 0.416,0 0.672,0.256 0.288,0.224 0.288,0.608 0,0.384 -0.288,0.64 -0.256,0.224 -0.672,0.224 z" stroke-width="0" stroke-linejoin="miter" stroke-miterlimit="2" fill="#316afd" stroke="#316afd" transform="translate(1.1368683772161603e-13 404.00976) translate(664.9681999999999 43.072320000000005) scale(1.29) translate(-615.11625 24.992)"></path>
            </g>
            <g id="title" style="font-style:normal;font-weight:normal;font-size:72px;line-height:1;font-family:'Brandmark Sans 26';font-variant-ligatures:normal;text-align:center;text-anchor:middle" transform="translate(0 0)">
                <path id="path8580" style="font-style:normal;font-weight:normal;font-size:72px;line-height:1;font-family:'Brandmark Sans 26';font-variant-ligatures:normal;text-align:center;text-anchor:middle" d="M 436.34375,-50.4 V 0 h 2.52 v -50.4 z m 12.312,41.04 h 5.544 c 1.512,0 4.536,-1.008 4.536,-5.544 0,-4.464 -3.024,-5.544 -4.536,-5.544 h -5.544 z m 0,-20.376 h 4.896 c 1.584,0 4.032,-1.008 4.032,-5.688 0,-4.68 -2.448,-5.688 -4.032,-5.688 h -4.896 z M 454.19975,0 h 14.256 v -13.176 c -0.576,7.272 -5.04,13.176 -14.256,13.176 z m 0.648,-50.4 c 3.744,0 12.024,2.16 12.024,14.976 0,4.176 -1.368,7.776 -3.96,10.152 3.312,1.8 5.184,5.472 5.544,9.072 v -34.2 z" stroke-width="0" stroke-linejoin="miter" stroke-miterlimit="2" fill="#316afd" stroke="#316afd" transform="translate(0 321.81808) translate(302.73920000000015 -39.495999999999974) scale(2.8) translate(-436.34375 50.4)"></path>
                <path id="path8582" style="font-style:normal;font-weight:normal;font-size:72px;line-height:1;font-family:'Brandmark Sans 26';font-variant-ligatures:normal;text-align:center;text-anchor:middle" d="M 468.19362,-50.4 V 0 h 2.52 v -50.4 z m 12.384,41.112 h 14.688 V 0 h 1.368 v -50.4 h -1.368 v 9.288 h -14.688 v 11.376 h 12.744 v 9.288 h -12.744 z" stroke-width="0" stroke-linejoin="miter" stroke-miterlimit="2" fill="#5d64f9" stroke="#5d64f9" transform="translate(0 321.81808) translate(391.91883600000017 -39.495999999999974) scale(2.8) translate(-468.19362 50.4)"></path>
                <path id="path8584" style="font-style:normal;font-weight:normal;font-size:72px;line-height:1;font-family:'Brandmark Sans 26';font-variant-ligatures:normal;text-align:center;text-anchor:middle" d="M 519.47338,0 V -9.288 H 503.92137 V -50.4 h -9.792 V 0 Z" stroke-width="0" stroke-linejoin="miter" stroke-miterlimit="2" fill="#885ff4" stroke="#885ff4" transform="translate(0 321.81808) translate(464.53893600000015 -39.495999999999974) scale(2.8) translate(-494.12937 50.4)"></path>
                <path id="path8586" style="font-style:normal;font-weight:normal;font-size:72px;line-height:1;font-family:'Brandmark Sans 26';font-variant-ligatures:normal;text-align:center;text-anchor:middle" d="m 536.16725,-51.624 c -5.544,0 -15.336,3.6 -15.336,15.984 v 20.88 c 0,12.384 9.792,15.984 15.336,15.984 5.544,0 15.336,-3.6 15.336,-15.984 v -20.88 c 0,-12.384 -9.792,-15.984 -15.336,-15.984 z m -5.544,36.864 v -20.88 c 0,-4.536 2.736,-6.336 5.544,-6.336 2.808,0 5.544,1.8 5.544,6.336 v 20.88 c 0,4.536 -2.736,6.336 -5.544,6.336 -2.808,0 -5.544,-1.8 -5.544,-6.336 z" stroke-width="0" stroke-linejoin="miter" stroke-miterlimit="2" fill="#b459f0" stroke="#b459f0" transform="translate(0 321.81808) translate(539.3041999999999 -42.9232) scale(2.8) translate(-520.83125 51.624)"></path>
                <path id="path8588" style="font-style:normal;font-weight:normal;font-size:72px;line-height:1;font-family:'Brandmark Sans 26';font-variant-ligatures:normal;text-align:center;text-anchor:middle" d="m 576.02375,-35.64 v 5.904 h 9.792 v -5.904 c 0,-12.384 -9.792,-15.984 -15.336,-15.984 -5.544,0 -15.336,3.6 -15.336,15.984 v 20.88 c 0,12.384 9.792,15.984 15.336,15.984 5.544,0 15.336,-3.6 15.336,-15.984 v -9.504 h -13.248 v 9.36 h 3.456 v 0.144 c 0,4.536 -2.736,6.336 -5.544,6.336 -2.808,0 -5.544,-1.8 -5.544,-6.336 v -20.88 c 0,-4.536 2.736,-6.336 5.544,-6.336 2.808,0 5.544,1.8 5.544,6.336 z" stroke-width="0" stroke-linejoin="miter" stroke-miterlimit="2" fill="#df53eb" stroke="#df53eb" transform="translate(0 321.81808) translate(635.3791999999999 -42.9232) scale(2.8) translate(-555.14375 51.624)"></path>
            </g>
            <image xlink:href="" id="icon" x="0" y="0" style="display: none;"></image>
        </g>
    </g>
</svg>