<svg xmlns="http://www.w3.org/2000/svg" width="800px" height="800px" viewBox="0 -64 640 640">
    <defs>
        <linearGradient id="instagramGradient" x1="0%" y1="0%" x2="100%" y2="0%">
            <stop offset="0%" style="stop-color:#833ab4;stop-opacity:1"/> <!-- Purple -->
            <stop offset="100%" style="stop-color:#fd1d1d;stop-opacity:1"/> <!-- Orange -->
        </linearGradient>
    </defs>
    <path d="M384 320H256c-17.67 0-32 14.33-32 32v128c0 17.67 14.33 32 32 32h128c17.67 0 32-14.33 32-32V352c0-17.67-14.33-32-32-32zM192 32c0-17.67-14.33-32-32-32H32C14.33 0 0 14.33 0 32v128c0 17.67 14.33 32 32 32h95.72l73.16 128.04C211.98 300.98 232.4 288 256 288h.28L192 175.51V128h224V64H192V32zM608 0H480c-17.67 0-32 14.33-32 32v128c0 17.67 14.33 32 32 32h128c17.67 0 32-14.33 32-32V32c0-17.67-14.33-32-32-32z" fill="url(#instagramGradient)"/>
</svg>